<svg width="1024" height="1024" viewBox="0 0 1024 1024" fill="none" xmlns="http://www.w3.org/2000/svg">
  <defs>
    <linearGradient id="bg" x1="128" y1="128" x2="896" y2="896" gradientUnits="userSpaceOnUse">
      <stop stop-color="#111C34"/>
      <stop offset="0.55" stop-color="#1D3F73"/>
      <stop offset="1" stop-color="#2E6CD3"/>
    </linearGradient>
    <linearGradient id="glass" x1="280" y1="220" x2="760" y2="820" gradientUnits="userSpaceOnUse">
      <stop stop-color="#FFFFFF" stop-opacity="0.34"/>
      <stop offset="1" stop-color="#FFFFFF" stop-opacity="0.06"/>
    </linearGradient>
    <linearGradient id="star" x1="380" y1="340" x2="680" y2="700" gradientUnits="userSpaceOnUse">
      <stop stop-color="#FFFFFF"/>
      <stop offset="1" stop-color="#C8DEFF"/>
    </linearGradient>
  </defs>

  <rect x="0" y="0" width="1024" height="1024" fill="url(#bg)"/>

  <circle cx="756" cy="290" r="70" fill="#8CC3FF" fill-opacity="0.24"/>
  <circle cx="812" cy="390" r="30" fill="#D0E7FF" fill-opacity="0.35"/>
  <circle cx="242" cy="774" r="54" fill="#D0E7FF" fill-opacity="0.18"/>

  <rect x="236" y="196" width="552" height="632" rx="120" fill="url(#glass)" stroke="white" stroke-opacity="0.18" stroke-width="8"/>

  <path d="M512 302L560 430L694 438L590 520L624 650L512 576L400 650L434 520L330 438L464 430L512 302Z" fill="url(#star)"/>

  <circle cx="364" cy="676" r="14" fill="white" fill-opacity="0.82"/>
  <circle cx="658" cy="676" r="14" fill="white" fill-opacity="0.82"/>
  <circle cx="512" cy="732" r="14" fill="white" fill-opacity="0.82"/>
</svg>
